<svg viewBox="0 0 365 365" xmlns="http://www.w3.org/2000/svg" xmlns:xlink="http://www.w3.org/1999/xlink" width="365.000000" height="365.000000" fill="none">
	<rect id="github-svgrepo-com 1" width="365.000000" height="365.000000" x="0.000000" y="0.000000" />
	<path id="Вектор 42" d="M182.5 19.0104C151.549 18.9945 121.23 27.7646 95.0669 44.3009C68.904 60.8372 47.9725 84.4605 34.7061 112.424C21.4398 140.387 16.3837 171.542 20.1256 202.266C23.8675 232.989 36.2538 262.02 55.8442 285.982C75.4346 309.943 101.424 327.852 130.792 337.625C139.004 339.146 141.97 334.127 141.97 330.021C141.97 325.915 141.97 315.877 141.97 302.266C96.3447 312.151 86.9156 280.366 86.9156 280.366C85.4189 275.378 83.0357 270.701 79.8801 266.558C76.7246 262.416 72.8485 258.876 68.4375 256.108C53.6093 245.995 69.5781 246.147 69.5781 246.147C74.7577 246.872 79.7035 248.769 84.0389 251.695C88.3743 254.62 91.9849 258.496 94.5958 263.028C109.196 288.046 132.617 280.822 142.198 276.64C142.573 272.519 143.675 268.497 145.453 264.76C147.23 261.023 149.655 257.631 152.616 254.74C116.268 250.633 78.0948 236.642 78.0948 173.983C77.9754 165.93 79.4003 157.929 82.2923 150.413C85.1842 142.896 89.4898 136.003 94.976 130.107C92.4832 123.124 91.3431 115.73 91.6165 108.32C91.89 100.91 93.5721 93.6201 96.5729 86.8396C96.5729 86.8396 110.26 82.4291 141.514 103.569C168.299 96.2686 196.549 96.2686 223.334 103.569C254.587 82.4291 268.275 86.8396 268.275 86.8396C271.253 93.6264 272.923 100.915 273.197 108.321C273.47 115.728 272.342 123.119 269.872 130.107C275.348 136.007 279.641 142.902 282.52 150.419C285.399 157.936 286.81 165.935 286.677 173.983C286.677 236.794 248.656 250.557 212.08 254.664C216.005 258.64 219.028 263.415 220.943 268.663C222.859 273.911 223.622 279.511 223.182 285.08C223.182 306.904 223.182 324.546 223.182 329.945C223.182 335.344 226.148 339.374 234.436 337.549C263.774 327.738 289.726 309.805 309.277 285.833C328.829 261.861 341.179 232.833 344.892 202.123C348.605 171.412 343.528 140.278 330.253 112.337C316.977 84.3961 296.046 60.795 269.892 44.2751C243.738 27.7552 213.434 18.9945 182.5 19.0104Z" fill="rgb(255,255,255)" fill-rule="evenodd" />
</svg>
