<svg viewBox="0 0 365 365" xmlns="http://www.w3.org/2000/svg" xmlns:xlink="http://www.w3.org/1999/xlink" width="365.000000" height="365.000000" fill="none">
	<rect id="soundcloud-svgrepo-com 1" width="365.000000" height="365.000000" x="0.000000" y="0.000000" />
	<path id="Вектор 44" d="M182.5 228.125L182.5 252.915L292.152 252.915C300.31 252.915 308.258 250.332 314.858 245.537C321.457 240.742 326.37 233.981 328.891 226.222C331.411 218.464 331.411 210.107 328.891 202.348C326.37 194.59 321.457 187.829 314.858 183.034C308.258 178.239 300.31 175.656 292.152 175.656C288.114 175.706 284.11 176.399 280.29 177.709C280.29 177.025 280.29 176.341 280.29 175.656C280.282 164.27 277.195 153.098 271.355 143.323C265.515 133.549 257.139 125.536 247.116 120.135C237.092 114.733 225.794 112.144 214.418 112.641C203.043 113.138 192.014 116.704 182.5 122.959L182.5 228.125Z" fill="rgb(255,255,255)" fill-rule="nonzero" />
	<path id="Вектор 44" d="M182.5 252.915L292.152 252.915C300.31 252.915 308.258 250.332 314.858 245.537C321.457 240.742 326.37 233.981 328.891 226.222C331.411 218.464 331.411 210.107 328.891 202.348C326.37 194.59 321.457 187.829 314.858 183.034C308.258 178.239 300.31 175.656 292.152 175.656C288.114 175.706 284.11 176.399 280.29 177.709C280.29 177.025 280.29 176.341 280.29 175.656C280.282 164.27 277.195 153.098 271.355 143.323C265.515 133.549 257.139 125.536 247.116 120.135C237.092 114.733 225.794 112.144 214.418 112.641C203.043 113.138 192.014 116.704 182.5 122.959L182.5 228.125L182.5 252.915Z" fill-rule="nonzero" stroke="rgb(255,255,255)" stroke-linecap="round" stroke-linejoin="round" stroke-width="13.000000" />
	<line id="Линия 6" x1="0" x2="49.1229057" y1="0" y2="0" stroke="rgb(255,255,255)" stroke-linecap="round" stroke-linejoin="round" stroke-width="13.000000" transform="matrix(0,1,-1,0,34.2188,185.085)" />
	<line id="Линия 7" x1="0" x2="79.5395813" y1="0" y2="0" stroke="rgb(255,255,255)" stroke-linecap="round" stroke-linejoin="round" stroke-width="13.000000" transform="matrix(0,1,-1,0,55.3584,167.216)" />
	<line id="Линия 8" x1="0" x2="79.6916656" y1="0" y2="0" stroke="rgb(255,255,255)" stroke-linecap="round" stroke-linejoin="round" stroke-width="13.000000" transform="matrix(0,1,-1,0,76.4978,172.995)" />
	<line id="Линия 9" x1="0" x2="101.363541" y1="0" y2="0" stroke="rgb(255,255,255)" stroke-linecap="round" stroke-linejoin="round" stroke-width="13.000000" transform="matrix(0,-1,1,0,97.6375,252.687)" />
	<line id="Линия 10" x1="0" x2="109.043762" y1="0" y2="0" stroke="rgb(255,255,255)" stroke-linecap="round" stroke-linejoin="round" stroke-width="13.000000" transform="matrix(0,1,-1,0,118.777,143.643)" />
	<line id="Линия 11" x1="0" x2="101.363541" y1="0" y2="0" stroke="rgb(255,255,255)" stroke-linecap="round" stroke-linejoin="round" stroke-width="13.000000" transform="matrix(0,-1,1,0,139.917,252.687)" />
	<line id="Линия 12" x1="0" x2="116.115631" y1="0" y2="0" stroke="rgb(255,255,255)" stroke-linecap="round" stroke-linejoin="round" stroke-width="13.000000" transform="matrix(0,1,-1,0,161.056,136.571)" />
</svg>
